<svg width="220" height="88" viewBox="0 0 220 88" fill="none" xmlns="http://www.w3.org/2000/svg">
<path fill-rule="evenodd" clip-rule="evenodd" d="M30.8767 88H0L55.6478 7.55961C60.4297 1.39851 64.0587 -0.0529086 70.9989 0.00145363C79.8067 -0.00533522 81.762 2.68571 85.2114 7.43314L85.3033 7.55961L118.099 56.1478H87.3966L70.1266 30.7739L30.8767 88ZM57.3923 65.5055L41.6923 87.82L189.098 87.82C206.717 87.82 220.68 75.763 219.974 59.7469C219.269 43.7308 211.134 37.0667 189.098 36.1726L141.474 36.1726C135.363 36.1927 133.593 34.7106 133.624 29.1543C134.125 25.3697 135.577 24.0784 141.474 24.1156L200.786 24.1156C200.786 24.1156 216.318 2.49288 217.149 1.63882C217.17 1.63323 217.182 1.62731 217.183 1.62105C217.187 1.60568 217.176 1.61204 217.149 1.63882C216.604 1.78392 209.555 1.70108 199.701 1.58528C179.367 1.34631 147.088 0.966972 135.369 2.16091C117.753 3.95564 110.233 12.9216 109.202 29.3343C110.443 45.3564 119.494 51.4689 135.02 52.7286C150.546 53.9883 166.42 53.2684 166.42 53.2684H189.098C191.714 53.2684 194.609 54.9663 194.854 59.7469C194.468 63.1598 192.938 64.1756 189.098 65.5055L57.3923 65.5055Z" fill="#C28F0B"/>
</svg>
